HIERARCHY
ROOT Hips
{
 OFFSET 0.000000 0.000000 0.000000
 CHANNELS 6 Xposition Yposition Zposition Yrotation Xrotation Zrotation
 JOINT Chest
 {
  OFFSET 0.000000 16.280000 -0.014500
  CHANNELS 3 Yrotation Xrotation Zrotation
  JOINT Chest2
  {
   OFFSET 0.000000 10.601900 0.029500
   CHANNELS 3 Yrotation Xrotation Zrotation
   JOINT Chest3
   {
    OFFSET 0.000000 10.554800 0.000000
    CHANNELS 3 Yrotation Xrotation Zrotation
    JOINT Chest4
    {
     OFFSET 0.000000 10.544000 0.000000
     CHANNELS 3 Yrotation Xrotation Zrotation
     JOINT Neck
     {
      OFFSET 0.000000 16.186500 0.000000
      CHANNELS 3 Yrotation Xrotation Zrotation
      JOINT Head
      {
       OFFSET 0.000000 9.876700 0.062400
       CHANNELS 3 Yrotation Xrotation Zrotation
       End Site
       {
        OFFSET 0.000000 18.635100 0.032900
       }
      }
     }
     JOINT RightCollar
     {
      OFFSET -3.550000 10.761000 0.000000
      CHANNELS 3 Yrotation Xrotation Zrotation
      JOINT RightShoulder
      {
       OFFSET -16.915100 0.000000 0.000000
       CHANNELS 3 Yrotation Xrotation Zrotation
       JOINT RightElbow
       {
        OFFSET 0.000000 -31.241900 0.000000
        CHANNELS 3 Yrotation Xrotation Zrotation
        JOINT RightWrist
        {
         OFFSET 0.000000 -25.690800 0.013700
         CHANNELS 3 Yrotation Xrotation Zrotation
         End Site
         {
          OFFSET 0.000000 -19.336200 0.000000
         }
        }
       }
      }
     }
     JOINT LeftCollar
     {
      OFFSET 3.550000 10.761000 0.000000
      CHANNELS 3 Yrotation Xrotation Zrotation
      JOINT LeftShoulder
      {
       OFFSET 16.915100 0.000000 0.000000
       CHANNELS 3 Yrotation Xrotation Zrotation
       JOINT LeftElbow
       {
        OFFSET 0.000000 -31.241900 0.000000
        CHANNELS 3 Yrotation Xrotation Zrotation
        JOINT LeftWrist
        {
         OFFSET 0.000000 -25.690800 0.013700
         CHANNELS 3 Yrotation Xrotation Zrotation
         End Site
         {
          OFFSET 0.000000 -19.336200 0.000000
         }
        }
       }
      }
     }
    }
   }
  }
 }
 JOINT RightHip
 {
  OFFSET -13.350800 0.071600 0.007200
  CHANNELS 3 Yrotation Xrotation Zrotation
  JOINT RightKnee
  {
   OFFSET 0.000000 -49.946400 0.002700
   CHANNELS 3 Yrotation Xrotation Zrotation
   JOINT RightAnkle
   {
    OFFSET 0.000000 -42.233900 0.021900
    CHANNELS 3 Yrotation Xrotation Zrotation
    JOINT RightToe
    {
     OFFSET 0.000000 -11.862800 19.724700
     CHANNELS 3 Yrotation Xrotation Zrotation
     End Site
     {
      OFFSET 0.000000 -1.715400 7.529500
     }
    }
   }
  }
 }
 JOINT LeftHip
 {
  OFFSET 13.350800 0.071600 0.007200
  CHANNELS 3 Yrotation Xrotation Zrotation
  JOINT LeftKnee
  {
   OFFSET 0.000000 -49.946400 0.002700
   CHANNELS 3 Yrotation Xrotation Zrotation
   JOINT LeftAnkle
   {
    OFFSET 0.000000 -42.233900 0.021900
    CHANNELS 3 Yrotation Xrotation Zrotation
    JOINT LeftToe
    {
     OFFSET 0.000000 -11.862800 19.724700
     CHANNELS 3 Yrotation Xrotation Zrotation
     End Site
     {
      OFFSET 0.000000 -1.715400 7.529500
     }
    }
   }
  }
 }
}
MOTION
Frames: 11
Frame Time: 0.008333
0.000000 103.775900 0.000000 0.000000 -5.767877 0.000000 0.000000 11.653817 0.000000 0.000000 -5.885947 0.000000 0.000000 -0.000000 0.000000 0.000000 -0.000000 0.000000 0.000000 12.528835 0.000000 0.000000 0.711642 0.000000 0.000000 -0.000000 0.000000 0.000000 0.000000 -90.000000 0.000000 -2.309062 0.000000 0.000000 2.309062 0.000000 0.000000 -0.000000 0.000000 0.000000 -0.000000 90.000000 0.000000 -2.309062 0.000000 0.000000 2.309062 0.000000 0.000000 8.520406 0.000000 0.000000 1.905762 0.000000 -0.000000 -4.658285 0.000000 0.000000 -0.000000 0.000000 0.000000 8.520406 0.000000 0.000000 1.905762 0.000000 -0.000000 -4.658285 0.000000 0.000000 -0.000000 0.000000
47.069593 153.226381 35.516852 -179.024220 -17.461721 -2.752966 -2.311343 9.174677 2.350608 -0.144429 0.535416 0.160950 -0.248949 0.926723 0.277614 -2.115591 8.493999 2.406290 -3.328836 21.840551 -1.589462 -3.220346 -2.369671 -0.942261 2.799560 5.382149 -3.540115 3.082987 -10.751164 -6.308648 37.474831 -73.820344 -37.540093 -13.552476 -19.033923 -27.734208 -3.760706 8.444761 0.941496 1.447244 -12.274146 0.676036 -58.662014 -72.267852 57.044610 7.167716 -18.071544 37.408343 2.381340 -54.513733 -5.947924 -169.192260 69.665213 -160.491993 -2.138110 -33.377211 -1.603983 0.054318 -0.168766 0.034143 -12.967819 -52.300527 8.388934 159.049131 70.076939 155.125025 0.233951 -36.124176 -3.172532 0.059002 0.185992 0.037327
49.140203 145.900498 35.063723 -179.023813 -17.478829 -2.805521 -2.298665 9.186044 2.411488 -0.144582 0.535513 0.160834 -0.249145 0.927039 0.277615 -2.118058 8.497101 2.401821 -3.325025 21.851036 -1.593717 -3.222248 -2.364001 -0.943161 2.816451 5.383310 -3.539068 3.029477 -10.774659 -6.343849 37.634424 -73.874400 -37.683483 -13.551526 -19.008695 -27.748257 -3.760934 8.442500 0.941457 1.527177 -12.319303 0.693612 -58.820871 -72.318244 57.156559 7.156930 -18.099829 37.476292 2.308085 -54.517626 -5.851553 -169.214716 69.636958 -160.518993 -2.124778 -33.441097 -1.604569 0.038546 -0.113107 0.023178 -13.029331 -52.261439 8.475911 159.036956 70.105418 155.106655 0.250599 -36.040377 -3.167130 0.038850 0.125916 0.023369
50.850630 139.866897 34.695227 -179.039853 -17.484020 -2.858528 -2.271233 9.174112 2.485087 -0.148650 0.544468 0.152842 -0.248859 0.927598 0.277262 -2.114957 8.506156 2.399142 -3.324577 21.855610 -1.598650 -3.208827 -2.342049 -0.957445 2.822059 5.382306 -3.541889 3.014379 -10.776418 -6.347380 37.901850 -73.929136 -37.969971 -13.571459 -18.933305 -27.743069 -3.763796 8.440232 0.938979 1.561476 -12.333793 0.697116 -59.110860 -72.352947 57.450845 7.141319 -18.109206 37.556951 2.230140 -54.537176 -5.737935 -169.211778 69.612945 -160.531171 -2.091387 -33.496463 -1.603854 0.013666 -0.060513 0.008218 -13.086236 -52.237848 8.574960 159.027013 70.126739 155.089324 0.278322 -35.962376 -3.159453 0.006541 0.065677 0.003932
52.083797 135.509911 34.429677 -179.035217 -17.494600 -2.889884 -2.265435 9.176814 2.523185 -0.150350 0.546265 0.153040 -0.249047 0.929293 0.277120 -2.115294 8.514524 2.396488 -3.328547 21.853903 -1.603542 -3.200926 -2.332852 -0.964482 2.825647 5.378410 -3.546814 2.994908 -10.783316 -6.357292 38.002554 -73.960335 -38.068909 -13.539914 -18.955989 -27.756633 -3.761422 8.436428 0.935531 1.591847 -12.348161 0.700794 -59.441200 -72.378514 57.782847 7.122121 -18.101687 37.643055 2.180078 -54.542198 -5.676074 -169.197455 69.596065 -160.529090 -2.078088 -33.526747 -1.601511 0.002529 -0.032276 0.001521 -13.136727 -52.216311 8.643649 159.040159 70.147732 155.094082 0.272493 -35.915280 -3.153640 0.003855 0.035333 0.002318
52.861263 132.759352 34.261368 -179.018111 -17.514473 -2.904248 -2.276671 9.193180 2.535498 -0.147607 0.541975 0.158045 -0.249828 0.930992 0.277175 -2.117804 8.525879 2.389445 -3.325837 21.855120 -1.603488 -3.196013 -2.325028 -0.971754 2.842182 5.369619 -3.547624 2.980748 -10.782790 -6.364204 38.104731 -73.988397 -38.187449 -13.496179 -18.997407 -27.721329 -3.753227 8.432425 0.936631 1.616053 -12.359858 0.707109 -59.784780 -72.400968 58.132562 7.102841 -18.094096 37.722568 2.150365 -54.530988 -5.656235 -169.194404 69.584389 -160.532537 -2.075679 -33.551424 -1.597099 -0.000441 -0.010027 -0.000265 -13.163521 -52.191354 8.661640 159.007598 70.173012 155.055391 0.272540 -35.865007 -3.151658 -0.001183 0.011603 -0.000712
53.289712 131.246521 34.172862 -179.016629 -17.523935 -2.907054 -2.274675 9.198584 2.540424 -0.145206 0.539134 0.160529 -0.250222 0.933038 0.277023 -2.117986 8.537310 2.383521 -3.318990 21.866257 -1.606762 -3.200174 -2.329524 -0.968255 2.838976 5.361510 -3.547286 2.977546 -10.783210 -6.366930 38.338637 -74.047744 -38.440725 -13.508340 -18.922490 -27.692626 -3.751247 8.431649 0.935660 1.619193 -12.367700 0.715110 -60.134226 -72.418892 58.516612 7.079574 -18.097510 37.795830 2.139471 -54.532850 -5.642849 -169.164481 69.580716 -160.515862 -2.071439 -33.549595 -1.589178 -0.003859 -0.001930 -0.002321 -13.166481 -52.180159 8.666146 158.995342 70.189294 155.044214 0.278982 -35.848627 -3.156701 -0.004246 0.006491 -0.002554
53.494745 130.526804 34.132873 -179.015559 -17.534521 -2.906107 -2.273396 9.201385 2.541743 -0.145228 0.540401 0.160509 -0.247112 0.933641 0.277690 -2.119262 8.550194 2.376502 -3.317929 21.870360 -1.607217 -3.198972 -2.324703 -0.969074 2.834514 5.353377 -3.544026 2.968970 -10.783035 -6.380489 38.673358 -74.165140 -38.787745 -13.516248 -18.784187 -27.666957 -3.750375 8.432004 0.936387 1.621689 -12.375158 0.724103 -60.476689 -72.440313 58.894914 7.051219 -18.123502 37.870752 2.104919 -54.538222 -5.609260 -169.125147 69.568459 -160.502203 -2.072790 -33.547657 -1.585328 -0.000863 -0.002508 -0.000519 -13.168641 -52.171248 8.673724 158.999990 70.203036 155.044966 0.276326 -35.834415 -3.154426 -0.004915 0.003672 -0.002956
53.577780 130.234132 34.115266 -179.010363 -17.557596 -2.898196 -2.276144 9.219849 2.533300 -0.145121 0.541536 0.160394 -0.246542 0.934803 0.275550 -2.120991 8.555707 2.374546 -3.316248 21.880215 -1.611826 -3.196973 -2.316520 -0.969736 2.839567 5.345823 -3.541564 2.958281 -10.778996 -6.385310 38.844837 -74.231196 -38.969592 -13.519847 -18.728948 -27.604497 -3.750145 8.431797 0.938156 1.640258 -12.375444 0.741957 -60.803971 -72.482172 59.243778 7.021517 -18.184877 37.953766 2.095609 -54.523402 -5.607911 -169.111191 69.560248 -160.501018 -2.075946 -33.548869 -1.581639 0.001950 -0.003487 0.001173 -13.159701 -52.150878 8.663252 159.004335 70.216262 155.042817 0.270874 -35.820802 -3.148421 -0.005001 0.000352 -0.003008
53.609302 130.132367 34.113811 -179.007446 -17.562373 -2.898538 -2.275887 9.219326 2.533103 -0.145227 0.542450 0.160149 -0.247411 0.938144 0.274949 -2.122469 8.559693 2.371555 -3.313156 21.893279 -1.616823 -3.195211 -2.304207 -0.970958 2.862356 5.347818 -3.531700 2.934961 -10.782589 -6.391552 39.027589 -74.289749 -39.158473 -13.527932 -18.680073 -27.547076 -3.741577 8.441745 0.939578 1.646261 -12.390287 0.752291 -61.099656 -72.521122 59.568818 6.990457 -18.286748 38.048652 2.075540 -54.527564 -5.591427 -169.091400 69.557831 -160.495006 -2.077043 -33.544827 -1.576537 0.000661 -0.002134 0.000397 -13.172558 -52.147916 8.684865 159.028321 70.227669 155.057533 0.262667 -35.813545 -3.145080 -0.002490 -0.000245 -0.001497
53.619306 130.104067 34.113457 -179.003000 -17.576781 -2.896214 -2.273827 9.229446 2.527927 -0.133408 0.541231 0.160577 -0.262605 0.942657 0.275348 -2.113978 8.569926 2.359420 -3.314975 21.902404 -1.610055 -3.195616 -2.287237 -0.972948 2.861845 5.340284 -3.514974 2.922119 -10.785847 -6.398326 39.264080 -74.362187 -39.390365 -13.540370 -18.667466 -27.461862 -3.732889 8.454893 0.936908 1.643466 -12.416781 0.777503 -61.298888 -72.553387 59.786365 6.955164 -18.451289 38.173615 2.060429 -54.519765 -5.582626 -169.068771 69.554758 -160.482389 -2.076134 -33.542670 -1.575577 0.001194 -0.002676 0.000718 -13.169063 -52.134551 8.677814 159.022338 70.232547 155.049915 0.266512 -35.810737 -3.148156 -0.004750 0.000659 -0.002857
